<svg width="1000" height="1000" viewBox="0 0 1000 1000" fill="none" xmlns="http://www.w3.org/2000/svg">
<rect width="1000" height="1000" rx="500" fill="white"/>
<path fill-rule="evenodd" clip-rule="evenodd" d="M374.73 474.609C302.037 604.161 243.444 711.044 244.521 712.124C248.001 715.614 330.342 694.022 358.354 682.274L385.535 670.873L502.977 440.884L530.845 493.455C546.17 522.37 560.542 547.966 562.78 550.339C566.682 554.465 606.102 514.134 626.582 485.064L636.353 471.2L575.243 358.96C541.634 297.228 512.508 245 510.52 242.888C508.532 240.783 447.428 345.058 374.73 474.609ZM670.303 646.069L630.963 683.706L666.39 757.143H791.429L751.332 683.653C729.274 643.236 710.873 609.772 710.436 609.297C709.999 608.821 691.939 625.368 670.303 646.069Z" fill="url(#paint0_linear_1687_944)"/>
<path d="M585.728 291.349L573.761 294.823L584.321 312.194C592.722 326.02 598.431 329.585 612.28 329.682C635.238 329.837 671.39 346.651 682.28 362.242C687.595 369.847 690.985 385.411 690.985 402.188C690.985 498.992 537.823 642.969 359.159 714.112C342.299 720.825 301.52 732.985 268.54 741.141L208.571 755.962L452.081 757.143L498.238 733.177C652.477 653.081 776.274 502.183 776.274 394.273C776.274 346.165 744.685 305.534 696.945 292.236C675.868 286.368 604.838 285.801 585.728 291.349Z" fill="#FF0000"/>
<path d="M361.255 393.379C319.138 423.919 316.132 429.258 353.563 407.046C385.221 388.248 404.304 372.128 394.459 372.492C391.905 372.588 376.958 381.984 361.255 393.379Z" fill="#FF0000"/>
<defs>
<linearGradient id="paint0_linear_1687_944" x1="500" y1="200" x2="500" y2="800" gradientUnits="userSpaceOnUse">
<stop stop-color="#6B6B6B"/>
<stop offset="1" stop-color="#121212"/>
</linearGradient>
</defs>
</svg>
